<mxfile host="app.diagrams.net" modified="2023-10-11T07:03:25.814Z" agent="Mozilla/5.0 (Windows NT 10.0; Win64; x64) AppleWebKit/537.36 (KHTML, like Gecko) Chrome/117.0.0.0 Safari/537.36" etag="98KmdBfS80RFLqh8q6Ol" version="22.0.4" type="github">
  <diagram id="C5RBs43oDa-KdzZeNtuy" name="Page-1">
    <mxGraphModel dx="224" dy="140" grid="1" gridSize="10" guides="1" tooltips="1" connect="1" arrows="1" fold="1" page="1" pageScale="1" pageWidth="827" pageHeight="1169" math="0" shadow="0">
      <root>
        <mxCell id="WIyWlLk6GJQsqaUBKTNV-0" />
        <mxCell id="WIyWlLk6GJQsqaUBKTNV-1" parent="WIyWlLk6GJQsqaUBKTNV-0" />
        <mxCell id="WIyWlLk6GJQsqaUBKTNV-2" value="" style="rounded=0;html=1;jettySize=auto;orthogonalLoop=1;fontSize=11;endArrow=block;endFill=0;endSize=8;strokeWidth=1;shadow=0;labelBackgroundColor=none;edgeStyle=orthogonalEdgeStyle;" parent="WIyWlLk6GJQsqaUBKTNV-1" source="WIyWlLk6GJQsqaUBKTNV-3" target="WIyWlLk6GJQsqaUBKTNV-6" edge="1">
          <mxGeometry relative="1" as="geometry" />
        </mxCell>
        <mxCell id="WIyWlLk6GJQsqaUBKTNV-3" value="Start" style="rounded=1;whiteSpace=wrap;html=1;fontSize=12;glass=0;strokeWidth=1;shadow=0;" parent="WIyWlLk6GJQsqaUBKTNV-1" vertex="1">
          <mxGeometry x="331" y="2" width="100" height="30" as="geometry" />
        </mxCell>
        <mxCell id="WIyWlLk6GJQsqaUBKTNV-4" value="&lt;p style=&quot;margin:0in;font-family:Calibri;font-size:11.0pt&quot;&gt;Socket FD&lt;/p&gt;" style="rounded=0;html=1;jettySize=auto;orthogonalLoop=1;fontSize=11;endArrow=block;endFill=0;endSize=8;strokeWidth=1;shadow=0;labelBackgroundColor=none;edgeStyle=orthogonalEdgeStyle;" parent="WIyWlLk6GJQsqaUBKTNV-1" source="WIyWlLk6GJQsqaUBKTNV-6" target="WIyWlLk6GJQsqaUBKTNV-10" edge="1">
          <mxGeometry y="40" relative="1" as="geometry">
            <mxPoint as="offset" />
          </mxGeometry>
        </mxCell>
        <mxCell id="WIyWlLk6GJQsqaUBKTNV-5" value="-1" style="edgeStyle=orthogonalEdgeStyle;rounded=0;html=1;jettySize=auto;orthogonalLoop=1;fontSize=11;endArrow=block;endFill=0;endSize=8;strokeWidth=1;shadow=0;labelBackgroundColor=none;" parent="WIyWlLk6GJQsqaUBKTNV-1" source="WIyWlLk6GJQsqaUBKTNV-6" target="WIyWlLk6GJQsqaUBKTNV-7" edge="1">
          <mxGeometry y="10" relative="1" as="geometry">
            <mxPoint as="offset" />
          </mxGeometry>
        </mxCell>
        <mxCell id="WIyWlLk6GJQsqaUBKTNV-6" value="&lt;font style=&quot;font-size: 10px;&quot;&gt;Create Server Socket&lt;/font&gt;" style="rhombus;whiteSpace=wrap;html=1;shadow=0;fontFamily=Helvetica;fontSize=12;align=center;strokeWidth=1;spacing=6;spacingTop=-4;" parent="WIyWlLk6GJQsqaUBKTNV-1" vertex="1">
          <mxGeometry x="331" y="67" width="100" height="80" as="geometry" />
        </mxCell>
        <mxCell id="WIyWlLk6GJQsqaUBKTNV-7" value="Error Message" style="rounded=1;whiteSpace=wrap;html=1;fontSize=12;glass=0;strokeWidth=1;shadow=0;" parent="WIyWlLk6GJQsqaUBKTNV-1" vertex="1">
          <mxGeometry x="481" y="92" width="120" height="30" as="geometry" />
        </mxCell>
        <mxCell id="WIyWlLk6GJQsqaUBKTNV-8" value="0" style="rounded=0;html=1;jettySize=auto;orthogonalLoop=1;fontSize=11;endArrow=block;endFill=0;endSize=8;strokeWidth=1;shadow=0;labelBackgroundColor=none;edgeStyle=orthogonalEdgeStyle;entryX=0.5;entryY=0;entryDx=0;entryDy=0;" parent="WIyWlLk6GJQsqaUBKTNV-1" source="WIyWlLk6GJQsqaUBKTNV-10" target="n1alUwQBTvNdXAod-HOT-1" edge="1">
          <mxGeometry x="-0.2404" y="20" relative="1" as="geometry">
            <mxPoint as="offset" />
            <mxPoint x="381" y="319" as="targetPoint" />
          </mxGeometry>
        </mxCell>
        <mxCell id="WIyWlLk6GJQsqaUBKTNV-9" value="-1" style="edgeStyle=orthogonalEdgeStyle;rounded=0;html=1;jettySize=auto;orthogonalLoop=1;fontSize=11;endArrow=block;endFill=0;endSize=8;strokeWidth=1;shadow=0;labelBackgroundColor=none;" parent="WIyWlLk6GJQsqaUBKTNV-1" source="WIyWlLk6GJQsqaUBKTNV-10" target="WIyWlLk6GJQsqaUBKTNV-12" edge="1">
          <mxGeometry x="-0.0069" y="10" relative="1" as="geometry">
            <mxPoint as="offset" />
          </mxGeometry>
        </mxCell>
        <mxCell id="WIyWlLk6GJQsqaUBKTNV-10" value="&lt;font style=&quot;font-size: 11px;&quot;&gt;Binding Socket&amp;nbsp;&lt;/font&gt;" style="rhombus;whiteSpace=wrap;html=1;shadow=0;fontFamily=Helvetica;fontSize=12;align=center;strokeWidth=1;spacing=6;spacingTop=-4;" parent="WIyWlLk6GJQsqaUBKTNV-1" vertex="1">
          <mxGeometry x="331" y="179" width="100" height="80" as="geometry" />
        </mxCell>
        <mxCell id="WIyWlLk6GJQsqaUBKTNV-12" value="Error Message" style="rounded=1;whiteSpace=wrap;html=1;fontSize=12;glass=0;strokeWidth=1;shadow=0;" parent="WIyWlLk6GJQsqaUBKTNV-1" vertex="1">
          <mxGeometry x="481" y="204" width="120" height="30" as="geometry" />
        </mxCell>
        <mxCell id="n1alUwQBTvNdXAod-HOT-6" value="" style="edgeStyle=orthogonalEdgeStyle;rounded=0;orthogonalLoop=1;jettySize=auto;html=1;exitX=1;exitY=0.5;exitDx=0;exitDy=0;" edge="1" parent="WIyWlLk6GJQsqaUBKTNV-1" source="n1alUwQBTvNdXAod-HOT-1" target="n1alUwQBTvNdXAod-HOT-5">
          <mxGeometry relative="1" as="geometry">
            <mxPoint x="441" y="340" as="sourcePoint" />
          </mxGeometry>
        </mxCell>
        <mxCell id="n1alUwQBTvNdXAod-HOT-9" value="" style="edgeStyle=orthogonalEdgeStyle;rounded=0;orthogonalLoop=1;jettySize=auto;html=1;exitX=0.5;exitY=1;exitDx=0;exitDy=0;" edge="1" parent="WIyWlLk6GJQsqaUBKTNV-1" source="n1alUwQBTvNdXAod-HOT-1" target="n1alUwQBTvNdXAod-HOT-8">
          <mxGeometry relative="1" as="geometry">
            <mxPoint x="361" y="400" as="sourcePoint" />
          </mxGeometry>
        </mxCell>
        <mxCell id="n1alUwQBTvNdXAod-HOT-1" value="&lt;font style=&quot;font-size: 9px;&quot;&gt;Listening to &lt;br&gt;the Client Request&lt;/font&gt;" style="rhombus;whiteSpace=wrap;html=1;shadow=0;fontFamily=Helvetica;fontSize=12;align=center;strokeWidth=1;spacing=6;spacingTop=-4;" vertex="1" parent="WIyWlLk6GJQsqaUBKTNV-1">
          <mxGeometry x="331" y="300" width="100" height="80" as="geometry" />
        </mxCell>
        <mxCell id="n1alUwQBTvNdXAod-HOT-5" value="Error Message&amp;nbsp;" style="rounded=1;whiteSpace=wrap;html=1;shadow=0;strokeWidth=1;spacing=6;spacingTop=-4;" vertex="1" parent="WIyWlLk6GJQsqaUBKTNV-1">
          <mxGeometry x="481" y="325" width="120" height="30" as="geometry" />
        </mxCell>
        <mxCell id="n1alUwQBTvNdXAod-HOT-12" value="" style="edgeStyle=orthogonalEdgeStyle;rounded=0;orthogonalLoop=1;jettySize=auto;html=1;" edge="1" parent="WIyWlLk6GJQsqaUBKTNV-1" source="n1alUwQBTvNdXAod-HOT-8" target="n1alUwQBTvNdXAod-HOT-11">
          <mxGeometry relative="1" as="geometry" />
        </mxCell>
        <mxCell id="n1alUwQBTvNdXAod-HOT-20" value="" style="edgeStyle=orthogonalEdgeStyle;rounded=0;orthogonalLoop=1;jettySize=auto;html=1;entryX=0.456;entryY=0.001;entryDx=0;entryDy=0;entryPerimeter=0;" edge="1" parent="WIyWlLk6GJQsqaUBKTNV-1" target="n1alUwQBTvNdXAod-HOT-19">
          <mxGeometry relative="1" as="geometry">
            <mxPoint x="381" y="475" as="sourcePoint" />
            <mxPoint x="281" y="542" as="targetPoint" />
            <Array as="points">
              <mxPoint x="381" y="522" />
              <mxPoint x="281" y="522" />
            </Array>
          </mxGeometry>
        </mxCell>
        <mxCell id="n1alUwQBTvNdXAod-HOT-22" style="edgeStyle=orthogonalEdgeStyle;rounded=0;orthogonalLoop=1;jettySize=auto;html=1;exitX=0.5;exitY=1;exitDx=0;exitDy=0;entryX=0.5;entryY=0;entryDx=0;entryDy=0;" edge="1" parent="WIyWlLk6GJQsqaUBKTNV-1" source="n1alUwQBTvNdXAod-HOT-8" target="n1alUwQBTvNdXAod-HOT-24">
          <mxGeometry relative="1" as="geometry">
            <mxPoint x="591" y="684" as="targetPoint" />
            <mxPoint x="381" y="552" as="sourcePoint" />
            <Array as="points">
              <mxPoint x="381" y="522" />
              <mxPoint x="680" y="522" />
            </Array>
          </mxGeometry>
        </mxCell>
        <mxCell id="n1alUwQBTvNdXAod-HOT-8" value="&lt;font style=&quot;font-size: 9px;&quot;&gt;Accepting Client Requests&lt;/font&gt;" style="rhombus;whiteSpace=wrap;html=1;shadow=0;fontFamily=Helvetica;fontSize=12;align=center;strokeWidth=1;spacing=6;spacingTop=-4;" vertex="1" parent="WIyWlLk6GJQsqaUBKTNV-1">
          <mxGeometry x="331" y="420" width="100" height="80" as="geometry" />
        </mxCell>
        <mxCell id="n1alUwQBTvNdXAod-HOT-10" value="&lt;span style=&quot;color: rgb(0, 0, 0); font-family: Helvetica; font-size: 11px; font-style: normal; font-variant-ligatures: normal; font-variant-caps: normal; font-weight: 400; letter-spacing: normal; orphans: 2; text-align: center; text-indent: 0px; text-transform: none; widows: 2; word-spacing: 0px; -webkit-text-stroke-width: 0px; background-color: rgb(251, 251, 251); text-decoration-thickness: initial; text-decoration-style: initial; text-decoration-color: initial; float: none; display: inline !important;&quot;&gt;-1&lt;/span&gt;" style="text;whiteSpace=wrap;html=1;" vertex="1" parent="WIyWlLk6GJQsqaUBKTNV-1">
          <mxGeometry x="451" y="315" width="40" height="40" as="geometry" />
        </mxCell>
        <mxCell id="n1alUwQBTvNdXAod-HOT-17" value="" style="edgeStyle=orthogonalEdgeStyle;rounded=0;orthogonalLoop=1;jettySize=auto;html=1;" edge="1" parent="WIyWlLk6GJQsqaUBKTNV-1" source="n1alUwQBTvNdXAod-HOT-11">
          <mxGeometry relative="1" as="geometry">
            <mxPoint x="621" y="410" as="targetPoint" />
            <Array as="points">
              <mxPoint x="621" y="460" />
              <mxPoint x="621" y="410" />
            </Array>
          </mxGeometry>
        </mxCell>
        <mxCell id="n1alUwQBTvNdXAod-HOT-11" value="Error Message" style="rounded=1;whiteSpace=wrap;html=1;shadow=0;strokeWidth=1;spacing=6;spacingTop=-4;" vertex="1" parent="WIyWlLk6GJQsqaUBKTNV-1">
          <mxGeometry x="483.5" y="445" width="117.5" height="30" as="geometry" />
        </mxCell>
        <mxCell id="n1alUwQBTvNdXAod-HOT-13" value="&lt;span style=&quot;color: rgb(0, 0, 0); font-family: Helvetica; font-size: 11px; font-style: normal; font-variant-ligatures: normal; font-variant-caps: normal; font-weight: 400; letter-spacing: normal; orphans: 2; text-align: center; text-indent: 0px; text-transform: none; widows: 2; word-spacing: 0px; -webkit-text-stroke-width: 0px; background-color: rgb(251, 251, 251); text-decoration-thickness: initial; text-decoration-style: initial; text-decoration-color: initial; float: none; display: inline !important;&quot;&gt;-1&lt;/span&gt;" style="text;whiteSpace=wrap;html=1;" vertex="1" parent="WIyWlLk6GJQsqaUBKTNV-1">
          <mxGeometry x="451" y="435" width="40" height="40" as="geometry" />
        </mxCell>
        <mxCell id="n1alUwQBTvNdXAod-HOT-18" value="" style="edgeStyle=orthogonalEdgeStyle;rounded=0;orthogonalLoop=1;jettySize=auto;html=1;" edge="1" parent="WIyWlLk6GJQsqaUBKTNV-1">
          <mxGeometry relative="1" as="geometry">
            <mxPoint x="621" y="410" as="sourcePoint" />
            <mxPoint x="381" y="400" as="targetPoint" />
            <Array as="points">
              <mxPoint x="621" y="400" />
            </Array>
          </mxGeometry>
        </mxCell>
        <mxCell id="n1alUwQBTvNdXAod-HOT-16" value="" style="shape=waypoint;sketch=0;size=6;pointerEvents=1;points=[];fillColor=default;resizable=0;rotatable=0;perimeter=centerPerimeter;snapToPoint=1;rounded=1;shadow=0;strokeWidth=1;spacing=6;spacingTop=-4;" vertex="1" parent="WIyWlLk6GJQsqaUBKTNV-1">
          <mxGeometry x="611" y="434" width="20" height="20" as="geometry" />
        </mxCell>
        <mxCell id="n1alUwQBTvNdXAod-HOT-26" value="" style="edgeStyle=orthogonalEdgeStyle;rounded=0;orthogonalLoop=1;jettySize=auto;html=1;entryX=0.5;entryY=0;entryDx=0;entryDy=0;" edge="1" parent="WIyWlLk6GJQsqaUBKTNV-1" target="n1alUwQBTvNdXAod-HOT-25">
          <mxGeometry relative="1" as="geometry">
            <mxPoint x="283" y="556" as="sourcePoint" />
            <mxPoint x="64.50000000000001" y="611" as="targetPoint" />
            <Array as="points">
              <mxPoint x="283" y="566" />
              <mxPoint x="85" y="566" />
            </Array>
          </mxGeometry>
        </mxCell>
        <mxCell id="n1alUwQBTvNdXAod-HOT-45" value="" style="edgeStyle=orthogonalEdgeStyle;rounded=0;orthogonalLoop=1;jettySize=auto;html=1;exitX=0.5;exitY=1;exitDx=0;exitDy=0;entryX=0.5;entryY=0;entryDx=0;entryDy=0;" edge="1" parent="WIyWlLk6GJQsqaUBKTNV-1" source="n1alUwQBTvNdXAod-HOT-19" target="n1alUwQBTvNdXAod-HOT-38">
          <mxGeometry relative="1" as="geometry">
            <mxPoint x="271" y="632" as="sourcePoint" />
            <mxPoint x="381" y="582" as="targetPoint" />
            <Array as="points">
              <mxPoint x="286" y="582" />
              <mxPoint x="381" y="582" />
            </Array>
          </mxGeometry>
        </mxCell>
        <mxCell id="n1alUwQBTvNdXAod-HOT-19" value="&lt;font style=&quot;font-size: 9px;&quot;&gt;Handle Client thread Created&lt;/font&gt;" style="rounded=1;whiteSpace=wrap;html=1;shadow=0;strokeWidth=1;spacing=6;spacingTop=-4;" vertex="1" parent="WIyWlLk6GJQsqaUBKTNV-1">
          <mxGeometry x="231" y="542" width="110" height="30" as="geometry" />
        </mxCell>
        <mxCell id="n1alUwQBTvNdXAod-HOT-24" value="&lt;font style=&quot;font-size: 9px;&quot;&gt;Waiting for Handle Client thread to Join&lt;/font&gt;" style="rounded=1;whiteSpace=wrap;html=1;" vertex="1" parent="WIyWlLk6GJQsqaUBKTNV-1">
          <mxGeometry x="620" y="542" width="120" height="30" as="geometry" />
        </mxCell>
        <mxCell id="n1alUwQBTvNdXAod-HOT-25" value="&lt;font style=&quot;font-size: 9px;&quot;&gt;Handle Send Thread&lt;/font&gt;" style="rounded=1;whiteSpace=wrap;html=1;shadow=0;strokeWidth=1;spacing=6;spacingTop=-4;" vertex="1" parent="WIyWlLk6GJQsqaUBKTNV-1">
          <mxGeometry x="30" y="590" width="110" height="30" as="geometry" />
        </mxCell>
        <mxCell id="n1alUwQBTvNdXAod-HOT-33" value="" style="edgeStyle=orthogonalEdgeStyle;rounded=0;orthogonalLoop=1;jettySize=auto;html=1;" edge="1" parent="WIyWlLk6GJQsqaUBKTNV-1" source="n1alUwQBTvNdXAod-HOT-28" target="n1alUwQBTvNdXAod-HOT-31">
          <mxGeometry relative="1" as="geometry" />
        </mxCell>
        <mxCell id="n1alUwQBTvNdXAod-HOT-28" value="&lt;font size=&quot;1&quot;&gt;Receive System call&lt;/font&gt;" style="rounded=1;whiteSpace=wrap;html=1;shadow=0;strokeWidth=1;spacing=6;spacingTop=-4;" vertex="1" parent="WIyWlLk6GJQsqaUBKTNV-1">
          <mxGeometry x="326" y="644" width="110" height="30" as="geometry" />
        </mxCell>
        <mxCell id="n1alUwQBTvNdXAod-HOT-37" value="" style="edgeStyle=orthogonalEdgeStyle;rounded=0;orthogonalLoop=1;jettySize=auto;html=1;" edge="1" parent="WIyWlLk6GJQsqaUBKTNV-1" source="n1alUwQBTvNdXAod-HOT-31" target="n1alUwQBTvNdXAod-HOT-36">
          <mxGeometry relative="1" as="geometry" />
        </mxCell>
        <mxCell id="n1alUwQBTvNdXAod-HOT-53" value="" style="edgeStyle=orthogonalEdgeStyle;rounded=0;orthogonalLoop=1;jettySize=auto;html=1;" edge="1" parent="WIyWlLk6GJQsqaUBKTNV-1" source="n1alUwQBTvNdXAod-HOT-31" target="n1alUwQBTvNdXAod-HOT-52">
          <mxGeometry relative="1" as="geometry" />
        </mxCell>
        <mxCell id="n1alUwQBTvNdXAod-HOT-31" value="&lt;font style=&quot;font-size: 9px;&quot;&gt;login&lt;/font&gt;" style="rhombus;whiteSpace=wrap;html=1;" vertex="1" parent="WIyWlLk6GJQsqaUBKTNV-1">
          <mxGeometry x="356" y="695" width="50" height="40" as="geometry" />
        </mxCell>
        <mxCell id="n1alUwQBTvNdXAod-HOT-34" value="&lt;font style=&quot;font-size: 9px;&quot;&gt;if&lt;/font&gt;" style="text;html=1;align=center;verticalAlign=middle;resizable=0;points=[];autosize=1;strokeColor=none;fillColor=none;" vertex="1" parent="WIyWlLk6GJQsqaUBKTNV-1">
          <mxGeometry x="372" y="665" width="30" height="30" as="geometry" />
        </mxCell>
        <mxCell id="n1alUwQBTvNdXAod-HOT-50" value="" style="edgeStyle=orthogonalEdgeStyle;rounded=0;orthogonalLoop=1;jettySize=auto;html=1;" edge="1" parent="WIyWlLk6GJQsqaUBKTNV-1" source="n1alUwQBTvNdXAod-HOT-36" target="n1alUwQBTvNdXAod-HOT-49">
          <mxGeometry relative="1" as="geometry" />
        </mxCell>
        <mxCell id="n1alUwQBTvNdXAod-HOT-59" value="" style="edgeStyle=orthogonalEdgeStyle;rounded=0;orthogonalLoop=1;jettySize=auto;html=1;" edge="1" parent="WIyWlLk6GJQsqaUBKTNV-1" source="n1alUwQBTvNdXAod-HOT-36" target="n1alUwQBTvNdXAod-HOT-58">
          <mxGeometry relative="1" as="geometry" />
        </mxCell>
        <mxCell id="n1alUwQBTvNdXAod-HOT-36" value="&lt;font style=&quot;font-size: 9px;&quot;&gt;Signup&lt;/font&gt;" style="rhombus;whiteSpace=wrap;html=1;" vertex="1" parent="WIyWlLk6GJQsqaUBKTNV-1">
          <mxGeometry x="353.5" y="754" width="55" height="49" as="geometry" />
        </mxCell>
        <mxCell id="n1alUwQBTvNdXAod-HOT-44" value="" style="edgeStyle=orthogonalEdgeStyle;rounded=0;orthogonalLoop=1;jettySize=auto;html=1;" edge="1" parent="WIyWlLk6GJQsqaUBKTNV-1" source="n1alUwQBTvNdXAod-HOT-38">
          <mxGeometry relative="1" as="geometry">
            <mxPoint x="381" y="642" as="targetPoint" />
            <Array as="points">
              <mxPoint x="381" y="642" />
            </Array>
          </mxGeometry>
        </mxCell>
        <mxCell id="n1alUwQBTvNdXAod-HOT-38" value="&lt;font style=&quot;font-size: 9px;&quot;&gt;Handle Receive Thread&lt;/font&gt;" style="rounded=1;whiteSpace=wrap;html=1;shadow=0;strokeWidth=1;spacing=6;spacingTop=-4;" vertex="1" parent="WIyWlLk6GJQsqaUBKTNV-1">
          <mxGeometry x="326" y="592" width="110" height="30" as="geometry" />
        </mxCell>
        <mxCell id="n1alUwQBTvNdXAod-HOT-47" value="&lt;font style=&quot;font-size: 9px;&quot;&gt;else if&lt;/font&gt;" style="text;html=1;align=center;verticalAlign=middle;resizable=0;points=[];autosize=1;strokeColor=none;fillColor=none;" vertex="1" parent="WIyWlLk6GJQsqaUBKTNV-1">
          <mxGeometry x="372" y="724" width="50" height="30" as="geometry" />
        </mxCell>
        <mxCell id="n1alUwQBTvNdXAod-HOT-64" value="" style="edgeStyle=orthogonalEdgeStyle;rounded=0;orthogonalLoop=1;jettySize=auto;html=1;entryX=0;entryY=0.25;entryDx=0;entryDy=0;exitX=0;exitY=0.5;exitDx=0;exitDy=0;" edge="1" parent="WIyWlLk6GJQsqaUBKTNV-1" source="n1alUwQBTvNdXAod-HOT-49">
          <mxGeometry relative="1" as="geometry">
            <mxPoint x="341" y="847.0222222222224" as="sourcePoint" />
            <mxPoint x="314.75" y="651.5" as="targetPoint" />
            <Array as="points">
              <mxPoint x="189" y="847" />
              <mxPoint x="189" y="652" />
            </Array>
          </mxGeometry>
        </mxCell>
        <mxCell id="n1alUwQBTvNdXAod-HOT-49" value="&lt;font style=&quot;font-size: 9px;&quot;&gt;Display Messages&lt;/font&gt;" style="rounded=0;whiteSpace=wrap;html=1;" vertex="1" parent="WIyWlLk6GJQsqaUBKTNV-1">
          <mxGeometry x="352.25" y="832" width="57.5" height="30" as="geometry" />
        </mxCell>
        <mxCell id="n1alUwQBTvNdXAod-HOT-51" value="&lt;font style=&quot;font-size: 9px;&quot;&gt;else&lt;/font&gt;" style="text;html=1;align=center;verticalAlign=middle;resizable=0;points=[];autosize=1;strokeColor=none;fillColor=none;" vertex="1" parent="WIyWlLk6GJQsqaUBKTNV-1">
          <mxGeometry x="371" y="797" width="40" height="30" as="geometry" />
        </mxCell>
        <mxCell id="n1alUwQBTvNdXAod-HOT-55" value="" style="edgeStyle=orthogonalEdgeStyle;rounded=0;orthogonalLoop=1;jettySize=auto;html=1;entryX=0.984;entryY=0.633;entryDx=0;entryDy=0;entryPerimeter=0;" edge="1" parent="WIyWlLk6GJQsqaUBKTNV-1" source="n1alUwQBTvNdXAod-HOT-52" target="n1alUwQBTvNdXAod-HOT-28">
          <mxGeometry relative="1" as="geometry">
            <mxPoint x="441" y="662" as="targetPoint" />
            <Array as="points">
              <mxPoint x="466" y="662" />
              <mxPoint x="434" y="662" />
            </Array>
          </mxGeometry>
        </mxCell>
        <mxCell id="n1alUwQBTvNdXAod-HOT-57" value="" style="edgeStyle=orthogonalEdgeStyle;rounded=0;orthogonalLoop=1;jettySize=auto;html=1;" edge="1" parent="WIyWlLk6GJQsqaUBKTNV-1" source="n1alUwQBTvNdXAod-HOT-52" target="n1alUwQBTvNdXAod-HOT-56">
          <mxGeometry relative="1" as="geometry" />
        </mxCell>
        <mxCell id="n1alUwQBTvNdXAod-HOT-52" value="&lt;p style=&quot;line-height: 100%;&quot;&gt;&lt;/p&gt;&lt;div style=&quot;&quot;&gt;&lt;span style=&quot;background-color: initial;&quot;&gt;&lt;font style=&quot;font-size: 9px;&quot;&gt;Authenticate User&lt;/font&gt;&lt;/span&gt;&lt;/div&gt;&lt;p&gt;&lt;/p&gt;" style="rhombus;whiteSpace=wrap;html=1;align=center;" vertex="1" parent="WIyWlLk6GJQsqaUBKTNV-1">
          <mxGeometry x="431" y="682" width="70" height="66" as="geometry" />
        </mxCell>
        <mxCell id="n1alUwQBTvNdXAod-HOT-56" value="&lt;font style=&quot;font-size: 8px;&quot;&gt;Return&lt;/font&gt;" style="whiteSpace=wrap;html=1;" vertex="1" parent="WIyWlLk6GJQsqaUBKTNV-1">
          <mxGeometry x="524.63" y="705" width="35.25" height="20" as="geometry" />
        </mxCell>
        <mxCell id="n1alUwQBTvNdXAod-HOT-60" value="" style="edgeStyle=orthogonalEdgeStyle;rounded=0;orthogonalLoop=1;jettySize=auto;html=1;" edge="1" parent="WIyWlLk6GJQsqaUBKTNV-1" source="n1alUwQBTvNdXAod-HOT-58" target="n1alUwQBTvNdXAod-HOT-28">
          <mxGeometry relative="1" as="geometry">
            <Array as="points">
              <mxPoint x="291" y="662" />
            </Array>
          </mxGeometry>
        </mxCell>
        <mxCell id="n1alUwQBTvNdXAod-HOT-66" value="" style="edgeStyle=orthogonalEdgeStyle;rounded=0;orthogonalLoop=1;jettySize=auto;html=1;" edge="1" parent="WIyWlLk6GJQsqaUBKTNV-1" source="n1alUwQBTvNdXAod-HOT-58" target="n1alUwQBTvNdXAod-HOT-65">
          <mxGeometry relative="1" as="geometry" />
        </mxCell>
        <mxCell id="n1alUwQBTvNdXAod-HOT-58" value="&lt;font size=&quot;1&quot;&gt;is Username taken&lt;/font&gt;" style="rhombus;whiteSpace=wrap;html=1;" vertex="1" parent="WIyWlLk6GJQsqaUBKTNV-1">
          <mxGeometry x="251" y="742" width="80" height="73" as="geometry" />
        </mxCell>
        <mxCell id="n1alUwQBTvNdXAod-HOT-61" value="&lt;font style=&quot;font-size: 9px;&quot;&gt;yes&lt;/font&gt;" style="text;html=1;align=center;verticalAlign=middle;resizable=0;points=[];autosize=1;strokeColor=none;fillColor=none;" vertex="1" parent="WIyWlLk6GJQsqaUBKTNV-1">
          <mxGeometry x="457" y="657" width="40" height="30" as="geometry" />
        </mxCell>
        <mxCell id="n1alUwQBTvNdXAod-HOT-62" value="&lt;font style=&quot;font-size: 9px;&quot;&gt;yes&lt;/font&gt;" style="text;html=1;align=center;verticalAlign=middle;resizable=0;points=[];autosize=1;strokeColor=none;fillColor=none;" vertex="1" parent="WIyWlLk6GJQsqaUBKTNV-1">
          <mxGeometry x="283" y="691" width="40" height="30" as="geometry" />
        </mxCell>
        <mxCell id="n1alUwQBTvNdXAod-HOT-65" value="&lt;font style=&quot;font-size: 8px;&quot;&gt;Return&lt;/font&gt;" style="whiteSpace=wrap;html=1;align=center;" vertex="1" parent="WIyWlLk6GJQsqaUBKTNV-1">
          <mxGeometry x="193" y="769.6899999999999" width="38" height="17.62" as="geometry" />
        </mxCell>
      </root>
    </mxGraphModel>
  </diagram>
</mxfile>
